<svg height="31" width="108" xmlns="http://www.w3.org/2000/svg" xmlns:xlink="http://www.w3.org/1999/xlink"><defs><path id="a" d="M23.197.667C21.462.263 18.609 0 15.385 0S9.307.263 7.572.667c-3.46.731-6.184 3.476-6.91 6.962C.262 9.377 0 12.251 0 15.5s.261 6.123.662 7.871c.726 3.486 3.45 6.23 6.91 6.962 1.735.404 4.588.667 7.813.667s6.077-.263 7.812-.667c3.46-.731 6.184-3.476 6.91-6.962.4-1.748.662-4.622.662-7.871s-.261-6.123-.662-7.871c-.726-3.486-3.45-6.23-6.91-6.962z"/><mask id="b" fill="#fff"><use fill-rule="evenodd" xlink:href="#a"/></mask></defs><g fill="none" fill-rule="evenodd"><use fill="#00b388" xlink:href="#a"/><path d="M19.081 23.796a2.335 2.335 0 0 0-1.665-1.386c-.451-.105-1.193-.174-2.031-.174s-1.58.069-2.032.174a2.335 2.335 0 0 0-1.659 1.371.6.6 0 0 1-.607.363 21.823 21.823 0 0 1-.165-.016c-1.206-.12-2.154-.29-2.705-.487a.984.984 0 0 1-.63-1.05c.094-1.264.856-4.226 1.995-7.606 1.303-3.865 2.664-6.994 3.278-7.604a1.319 1.319 0 0 1 .526-.338c.404-.137 1.147-.23 1.998-.23.852 0 1.596.093 1.998.23l.007.002a1.32 1.32 0 0 1 .52.336c.614.61 1.976 3.739 3.278 7.604 1.139 3.38 1.901 6.342 1.995 7.607a.464.464 0 0 0 .003.044 3.77 3.77 0 0 1 .004.083.984.984 0 0 1-.636.922c-.55.197-1.498.366-2.703.487l-.188.018a.572.572 0 0 1-.58-.35z" fill="#fff" fill-rule="nonzero" mask="url(#b)"/><path d="M49.146 10.328h2.94v12.927h-2.94v-2.272c-.918 1.611-2.494 2.536-4.541 2.536-3.413 0-6.143-3.011-6.143-6.735s2.73-6.709 6.143-6.709c2.047 0 3.623.924 4.541 2.536zm44.021 0h2.94v12.927h-2.94v-2.272c-.919 1.611-2.494 2.536-4.541 2.536-3.413 0-6.144-3.011-6.144-6.735s2.73-6.709 6.144-6.709c2.047 0 3.622.924 4.541 2.536zM45.3 20.709c2.232 0 3.912-1.69 3.912-3.935 0-2.219-1.68-3.909-3.912-3.909a3.894 3.894 0 0 0-3.911 3.909c0 2.192 1.732 3.935 3.911 3.935zm43.867 0c2.232 0 3.912-1.69 3.912-3.935 0-2.219-1.68-3.909-3.912-3.909a3.894 3.894 0 0 0-3.911 3.909c0 2.192 1.732 3.935 3.911 3.935zM56.49 3.875c1.024 0 1.89.872 1.89 1.875a1.905 1.905 0 0 1-1.89 1.902c-1.024 0-1.864-.845-1.864-1.902 0-1.003.84-1.875 1.864-1.875zm-1.444 6.417h2.914v12.927h-2.914zm12.068-.253c.561 0 1.102.084 1.491.233.23.088.432.185.59.267l-1.187 2.497a4.086 4.086 0 0 0-1.183-.17c-1.418 0-2.993 1.188-2.993 3.46v6.893h-2.914V10.292h2.914v1.86c.578-1.241 2.022-2.113 3.282-2.113zm14.635 9.905c-.971 2.14-3.229 3.54-5.907 3.54-3.806 0-6.72-2.88-6.72-6.71s2.887-6.735 6.694-6.735c2.494 0 4.594 1.242 5.54 3.143l-2.468 1.4c-.525-1.03-1.68-1.717-3.072-1.717-2.205 0-3.807 1.69-3.807 3.91 0 2.192 1.628 3.882 3.833 3.882 1.497 0 2.73-.713 3.308-1.902zM101.98 3.875v19.344h-2.914V3.875zm5.872 0v19.344h-2.914V3.875z" fill="#101820"/></g></svg>