<svg xmlns="http://www.w3.org/2000/svg" width="286" height="56" viewBox="0 0 286 56">
  <g fill="none" transform="translate(11 2)">
    <path fill="#054752" d="M51.005996,26.4759322 C49.7044637,18.6142373 42.2822119,13.3261017 34.473018,14.6657627 L36.7594937,1.49830508 L28.3698867,0 C27.6663558,1.58644068 24.5004664,8.81355932 22.9702865,16.9220339 C26.0834111,19.0372881 28.3698867,22.3864407 29.0558294,26.440678 C29.7593604,30.7240678 28.5281812,34.9016949 25.9602931,38.0040678 C26.593471,38.779661 27.3145903,39.4847458 28.1236509,40.119322 C31.3774817,42.6928814 35.3348434,43.6976271 39.2042638,43.0454237 C47.0662225,41.7410169 52.3427049,34.3023729 50.9884077,26.4759322 L51.005996,26.4759322 Z"/>
    <path fill="#2DBEFF" d="M22.8295803,17.8386441 L23.005463,16.9572881 C20.0154564,14.9125424 16.3219187,13.9959322 12.4876749,14.6305085 L14.7741506,1.48067797 L6.40213191,0 C5.66342438,1.63932203 2.28647568,9.34237288 0.844237175,17.8033898 C-0.316588941,24.6427119 -0.263824117,31.9755932 3.3065956,37.140339 C4.09806795,38.2508475 5.0302465,39.2555932 6.15589607,40.1369492 C9.42731512,42.7105085 13.4022652,43.7152542 17.2716855,43.0630508 C20.824517,42.4813559 23.8321119,40.5952542 25.9602931,38.039322 L25.2919387,37.1579661 C21.7039307,32.0108475 21.6511659,24.6779661 22.8295803,17.8562712 L22.8295803,17.8386441 Z"/>
    <path fill="#9EF769" d="M29.0734177,26.4759322 C28.3698867,22.4216949 26.0834111,19.0725424 22.9878748,16.9572881 L22.811992,17.8386441 C21.6687542,24.6779661 21.721519,32.0108475 25.309527,37.1755932 L25.9602931,38.0569492 C28.5281812,34.8840678 29.794537,30.7240678 29.0558294,26.4230508 L29.0734177,26.4759322 Z"/>
    <path fill="#054752" d="M219.853431,40.1898305 L214.858361,40.1898305 C214.682478,40.1898305 214.55936,40.2779661 214.506596,40.4189831 C213.803065,42.2874576 212.818121,43.8386441 211.411059,44.9315254 C210.003997,45.9891525 208.192405,46.6237288 205.835576,46.6237288 C202.616922,46.6237288 200.031446,45.2135593 198.272618,42.8515254 C196.513791,40.4718644 195.528847,37.1755932 195.528847,33.4033898 C195.528847,29.5959322 196.496203,26.299661 198.272618,23.9552542 C200.031446,21.6108475 202.63451,20.200678 205.835576,20.200678 C208.174817,20.200678 209.968821,20.8176271 211.375883,21.8928814 C212.782945,22.9857627 213.7503,24.5369492 214.471419,26.3525424 C214.524184,26.4935593 214.647302,26.599322 214.823185,26.599322 L219.835843,26.599322 C219.906196,26.599322 220.011726,26.5640678 220.06449,26.4935593 C220.134843,26.440678 220.17002,26.3525424 220.17002,26.2467797 L220.17002,26.1586441 C219.378548,22.7742373 217.742838,19.9891525 215.315656,18.0501695 C212.888474,16.1111864 209.722585,14.9830508 205.782811,14.9830508 C201.20986,14.9830508 197.164557,16.8691525 194.262492,20.0949153 C191.360426,23.3383051 189.601599,27.9389831 189.601599,33.4562712 C189.601599,38.9735593 191.360426,43.5918644 194.262492,46.8176271 C197.164557,50.0786441 201.20986,51.9294915 205.8004,51.9294915 C209.740173,51.9294915 212.941239,50.8366102 215.386009,48.88 C217.813191,46.9410169 219.466489,44.120678 220.222785,40.6833898 L220.222785,40.5952542 C220.222785,40.4894915 220.187608,40.4189831 220.117255,40.3308475 C220.082079,40.2779661 219.976549,40.2427119 219.871019,40.2427119 L219.853431,40.1898305 Z M263.700999,25.3477966 C263.349234,25.2772881 262.856762,25.2067797 262.170819,25.2067797 C261.572818,25.2067797 260.834111,25.259661 259.989873,25.4183051 C259.286342,25.559322 258.530047,25.8413559 257.826516,26.2291525 C257.122985,26.6169492 256.419454,27.1457627 255.786276,27.780339 C255.43451,28.1328814 255.082745,28.5735593 254.766156,29.0671186 L254.537508,29.419661 L254.537508,26 C254.537508,25.7884746 254.361626,25.6122034 254.185743,25.6122034 L249.401732,25.6122034 C249.225849,25.6122034 249.049967,25.7884746 249.049967,26 L249.049967,51.0305085 C249.049967,51.2067797 249.225849,51.3830508 249.401732,51.3830508 L254.220919,51.3830508 C254.431979,51.3830508 254.607861,51.2067797 254.607861,51.0305085 L254.607861,38.8677966 C254.607861,37.4576271 254.783744,36.2589831 255.082745,35.2718644 C255.399334,34.2847458 255.874217,33.5091525 256.489807,32.9098305 C257.140573,32.3105085 257.861692,31.8522034 258.705929,31.5525424 C259.690873,31.2 260.763757,31.0942373 261.695936,31.0942373 C262.399467,31.0942373 263.102998,31.1647458 263.507528,31.2352542 L263.560293,31.2352542 C263.771352,31.2352542 263.912059,31.0942373 263.912059,30.8827119 L263.912059,25.7355932 C263.964823,25.559322 263.841706,25.3830508 263.648235,25.3477966 L263.700999,25.3477966 Z M160.053298,14.9477966 L159.965356,14.9477966 L155.128581,15.7938983 C154.952698,15.8291525 154.776815,15.9701695 154.776815,16.1464407 L154.776815,51.0128814 C154.776815,51.2244068 154.952698,51.400678 155.181346,51.400678 L160.053298,51.400678 C160.229181,51.400678 160.405063,51.2244068 160.405063,51.0128814 L160.405063,15.3355932 C160.405063,15.1240678 160.229181,14.9477966 160.000533,14.9477966 L160.053298,14.9477966 Z M150.080746,35.6420339 C149.377215,34.1966102 148.392272,32.9627119 147.178681,31.940339 L146.826915,31.6759322 C146.299267,31.2705085 145.718854,30.900339 145.103264,30.6183051 L144.927382,30.5301695 L145.0505,30.4067797 C145.613324,29.7545763 146.105796,28.9966102 146.457562,28.1857627 C146.98521,27.0047458 147.249034,25.7884746 147.249034,24.519322 C147.249034,23.1444068 146.967622,21.8752542 146.439973,20.6413559 C145.912325,19.4074576 145.156029,18.3850847 144.206262,17.5037288 C143.326849,16.6928814 142.271552,16.0583051 141.07555,15.6 C139.879547,15.1416949 138.384544,14.8949153 136.625716,14.8949153 L125.967222,14.8949153 C125.756163,14.8949153 125.58028,15.0711864 125.58028,15.300339 L125.58028,50.9952542 C125.58028,51.2067797 125.756163,51.3830508 125.967222,51.3830508 L139.123251,51.3830508 C141.005197,51.3830508 142.570553,51.1715254 143.836909,50.7484746 C145.068088,50.3254237 146.211326,49.6908475 147.178681,48.8976271 C148.374684,47.8928814 149.359627,46.6413559 150.080746,45.1959322 C150.256629,44.8433898 150.379747,44.5437288 150.502865,44.2264407 L150.55563,44.0854237 L150.643571,43.8386441 C150.995336,42.7457627 151.206396,41.6 151.206396,40.4013559 C151.171219,38.6738983 150.801865,37.0522034 150.063158,35.6067797 L150.080746,35.6420339 Z M131.261292,20.3064407 L135.728714,20.3064407 C137.135776,20.3064407 138.191073,20.4298305 138.894604,20.6589831 C139.562958,20.9233898 140.090606,21.2759322 140.477548,21.7166102 C141.233844,22.5627119 141.620786,23.5498305 141.620786,24.7132203 C141.620786,25.8413559 141.269021,26.8284746 140.477548,27.6745763 C140.090606,28.1152542 139.598135,28.4677966 138.894604,28.7322034 C138.402132,28.9084746 137.663424,29.0142373 136.784011,29.0847458 L131.208528,29.0847458 L131.208528,20.3064407 L131.261292,20.3064407 Z M144.980147,42.4461017 C144.698734,43.1511864 144.311792,43.7505085 143.81932,44.279322 C143.256496,44.8081356 142.588141,45.2664407 141.761492,45.5837288 C140.934843,45.8833898 139.721252,46.059661 138.103131,46.059661 L131.243704,46.059661 L131.243704,34.4786441 L138.103131,34.4786441 C139.721252,34.4786441 140.917255,34.6549153 141.743904,34.9545763 C142.535376,35.2718644 143.221319,35.7125424 143.766556,36.2589831 C144.259027,36.7877966 144.645969,37.3871186 144.94497,38.0569492 C145.243971,38.7091525 145.384677,39.4671186 145.384677,40.2250847 C145.384677,41.0183051 145.243971,41.7586441 144.94497,42.4461017 L144.980147,42.4461017 Z M183.322585,27.7098305 C181.458228,26 178.89034,25.1538983 175.689274,25.1538983 C172.804797,25.1538983 170.447968,25.8589831 168.653964,27.2691525 C167.071019,28.4501695 165.927781,29.9661017 165.312192,31.7640678 C165.241839,31.940339 165.364957,32.1694915 165.576016,32.2047458 L170.113791,32.9979661 C170.289674,33.0332203 170.412791,32.9450847 170.465556,32.8216949 C171.397735,30.759322 173.138974,29.7545763 175.706862,29.7545763 C177.46569,29.7545763 178.802398,30.2305085 179.752165,31.2 C180.701932,32.1694915 181.159227,33.4562712 181.159227,35.0779661 L181.159227,35.9945763 C178.78481,35.2894915 176.515923,34.9369492 174.40533,34.9369492 C171.415323,34.9369492 168.917788,35.6772881 166.930313,37.1932203 C164.960426,38.7091525 163.940306,40.8420339 163.940306,43.5742373 C163.940306,46.1830508 164.872485,48.2277966 166.684077,49.7084746 C168.49567,51.1891525 170.676616,51.9294915 173.244504,51.9294915 C176.515923,51.9294915 179.224517,50.9776271 181.194404,49.0033898 L181.194404,50.9776271 C181.194404,51.2244068 181.405463,51.4183051 181.634111,51.4183051 L185.82012,51.4183051 C186.048767,51.4183051 186.242239,51.2420339 186.242239,50.9952542 L186.242239,34.7254237 C186.189474,31.7288136 185.239707,29.4020339 183.340173,27.7098305 L183.322585,27.7098305 Z M179.066223,45.3369492 C177.659161,46.5179661 175.953098,47.099661 173.912858,47.099661 C172.417855,47.099661 171.274617,46.7471186 170.465556,46.0772881 C169.691672,45.4074576 169.287142,44.4908475 169.287142,43.3274576 C169.287142,42.0583051 169.81479,41.1064407 170.799734,40.4718644 C171.784677,39.8372881 173.086209,39.5023729 174.669154,39.5023729 C176.656629,39.5023729 178.837575,39.8549153 181.176815,40.56 C181.176815,42.6223729 180.473284,44.1911864 179.066223,45.319322 L179.066223,45.3369492 Z M94.8007995,14.9477966 L94.7304464,14.9477966 L89.8760826,15.7938983 C89.7001999,15.8291525 89.5243171,15.9701695 89.5243171,16.1464407 L89.5243171,51.0128814 C89.5243171,51.2244068 89.7001999,51.400678 89.9288474,51.400678 L94.8007995,51.400678 C94.9766822,51.400678 95.152565,51.2244068 95.152565,51.0128814 L95.152565,15.3355932 C95.152565,15.1240678 94.9766822,14.9477966 94.7656229,14.9477966 L94.8007995,14.9477966 Z M84.775483,35.6420339 C84.071952,34.1966102 83.1221852,32.9627119 81.9085943,31.940339 L81.5568288,31.6759322 C81.0291805,31.2705085 80.4487675,30.900339 79.8331779,30.6183051 L79.6572951,30.5301695 L79.7804131,30.4067797 C80.3432378,29.7545763 80.8357095,28.9966102 81.187475,28.1857627 C81.7151233,27.0047458 81.9789474,25.7884746 81.9789474,24.519322 C81.9789474,23.1444068 81.7151233,21.8752542 81.187475,20.6413559 C80.6598268,19.4074576 79.903531,18.3850847 78.9537642,17.5037288 C78.0743504,16.6928814 77.019054,16.0583051 75.8582278,15.6 C74.6622252,15.1416949 73.1672219,14.8949153 71.4083944,14.8949153 L60.7674883,14.8949153 C60.556429,14.8949153 60.3805463,15.0711864 60.3805463,15.300339 L60.3805463,50.9952542 C60.3805463,51.2067797 60.556429,51.3830508 60.7674883,51.3830508 L73.8707528,51.3830508 C75.7526982,51.3830508 77.3180546,51.1715254 78.5844104,50.7484746 C79.8155896,50.3254237 80.9588274,49.6908475 81.9261825,48.8976271 C83.1221852,47.8928814 84.1071286,46.6413559 84.8282478,45.1959322 C85.0041306,44.8433898 85.1272485,44.5437288 85.2503664,44.2264407 L85.3031312,44.0854237 C85.3031312,44.0149153 85.3383078,43.9091525 85.3734843,43.8386441 C85.7252498,42.7457627 85.9363091,41.6 85.9363091,40.4013559 C85.9011326,38.6738983 85.5317788,37.0522034 84.7930713,35.6067797 L84.775483,35.6420339 Z M65.9560293,20.3064407 L70.4586276,20.3064407 C71.8656895,20.3064407 72.920986,20.4298305 73.624517,20.6589831 C74.2928714,20.9233898 74.8205197,21.2759322 75.2074617,21.7166102 C75.9637575,22.5627119 76.3506995,23.5498305 76.3506995,24.7132203 C76.3506995,25.8413559 75.998934,26.8284746 75.2074617,27.6745763 C74.8205197,28.1152542 74.328048,28.4677966 73.624517,28.7322034 C73.1320453,28.9084746 72.3933378,29.0142373 71.5139241,29.0847458 L65.9560293,29.0847458 L65.9560293,20.3064407 Z M79.7276482,42.4461017 C79.4286476,43.1511864 79.0241173,43.7505085 78.5492338,44.279322 C77.9864091,44.8081356 77.3180546,45.2664407 76.4914057,45.5837288 C75.6647568,45.8833898 74.4511659,46.059661 72.8330446,46.059661 L65.9736176,46.059661 L65.9736176,34.4786441 L72.8330446,34.4786441 C74.4687542,34.4786441 75.6823451,34.6549153 76.4914057,34.9545763 C77.3180546,35.2718644 78.0039973,35.7125424 78.5492338,36.2589831 C79.0417055,36.7877966 79.4286476,37.3871186 79.7276482,38.0569492 C80.0266489,38.7091525 80.1673551,39.4671186 80.1673551,40.2250847 C80.1673551,41.0183051 79.9914724,41.7586441 79.71006,42.4461017 L79.7276482,42.4461017 Z M118.070087,27.7098305 C116.188141,26 113.620253,25.1538983 110.419187,25.1538983 C107.552298,25.1538983 105.19547,25.8589831 103.383877,27.2691525 C101.800933,28.4501695 100.675283,29.9661017 100.042105,31.7640678 C99.9893404,31.940339 100.112458,32.1694915 100.323518,32.2047458 L104.843704,32.9979661 C105.019587,33.0332203 105.19547,32.9450847 105.248235,32.8216949 C106.162825,30.759322 107.886476,29.7545763 110.471952,29.7545763 C112.178015,29.7545763 113.532312,30.2305085 114.482079,31.2 C115.431845,32.1694915 115.924317,33.4562712 115.924317,35.0779661 L115.924317,35.9945763 C113.514724,35.2894915 111.245836,34.9369492 109.135243,34.9369492 C106.145237,34.9369492 103.647702,35.6772881 101.660227,37.1932203 C99.637575,38.7091525 98.6702199,40.8420339 98.6702199,43.5742373 C98.6702199,46.1830508 99.5496336,48.2277966 101.361226,49.7084746 C103.172818,51.1891525 105.353764,51.9294915 107.921652,51.9294915 C111.21066,51.9294915 113.901666,50.9776271 115.889141,49.0033898 L115.889141,50.9776271 C115.889141,51.2244068 116.065023,51.4183051 116.293671,51.4183051 L120.47968,51.4183051 C120.725916,51.4183051 120.919387,51.2420339 120.919387,50.9952542 L120.919387,34.7254237 C120.866622,31.7288136 119.934444,29.4020339 118.03491,27.7098305 L118.070087,27.7098305 Z M113.778548,45.3369492 C112.371486,46.5179661 110.612658,47.099661 108.590007,47.099661 C107.095003,47.099661 105.951765,46.7471186 105.142705,46.0772881 C104.333644,45.4074576 103.911526,44.4908475 103.911526,43.3274576 C103.911526,42.0583051 104.439174,41.1064407 105.441706,40.4718644 C106.444237,39.8372881 107.728181,39.5023729 109.311126,39.5023729 C111.316189,39.5023729 113.497135,39.8549153 115.818787,40.56 C115.853964,42.6223729 115.150433,44.1911864 113.743371,45.319322 L113.778548,45.3369492 Z M242.278481,27.7098305 C240.396536,26 237.828648,25.1538983 234.627582,25.1538983 C231.778281,25.1538983 229.421452,25.8589831 227.592272,27.2691525 C226.009327,28.4501695 224.901266,29.9661017 224.2505,31.7640678 C224.215323,31.940339 224.338441,32.1694915 224.5495,32.2047458 L229.087275,32.9979661 C229.263158,33.0332203 229.386276,32.9450847 229.439041,32.8216949 C230.371219,30.759322 232.112458,29.7545763 234.680346,29.7545763 C236.403997,29.7545763 237.758294,30.2305085 238.72565,31.2 C239.657828,32.1694915 240.132712,33.4562712 240.132712,35.0779661 L240.132712,35.9945763 C237.740706,35.2894915 235.471819,34.9369492 233.361226,34.9369492 C230.371219,34.9369492 227.873684,35.6772881 225.886209,37.1932203 C223.898734,38.7091525 222.896203,40.8420339 222.896203,43.5742373 C222.896203,46.1830508 223.810793,48.2277966 225.622385,49.7084746 C227.433977,51.1891525 229.614923,51.9294915 232.182811,51.9294915 C235.489407,51.9294915 238.162825,50.9776271 240.167888,49.0033898 L240.167888,50.9776271 C240.167888,51.2244068 240.343771,51.4183051 240.590007,51.4183051 L244.776016,51.4183051 C245.004664,51.4183051 245.198135,51.2420339 245.198135,50.9952542 L245.198135,34.7254237 C245.127781,31.7288136 244.178015,29.4020339 242.296069,27.7098305 L242.278481,27.7098305 Z M237.969354,45.3369492 C236.562292,46.5179661 234.873817,47.099661 232.833578,47.099661 C231.338574,47.099661 230.195336,46.7471186 229.386276,46.0772881 C228.612392,45.4074576 228.207861,44.4908475 228.207861,43.3274576 C228.207861,42.0583051 228.73551,41.1064407 229.720453,40.4718644 C230.722985,39.8372881 232.006929,39.5023729 233.589873,39.5023729 C235.594937,39.5023729 237.811059,39.8549153 240.097535,40.56 C240.097535,42.6223729 239.394004,44.1911864 237.986942,45.319322 L237.969354,45.3369492 Z"/>
  </g>
</svg>
