<svg xmlns="http://www.w3.org/2000/svg" width="286" height="56" viewBox="0 0 286 56">
  <g fill="#596678" transform="translate(40 10)">
    <path d="M76.2149756,1.70232 L72.8479164,1.70232 C72.0911475,1.70232 71.4769756,2.31696 71.4769756,3.07632 L71.4769756,34.07112 C71.4769756,34.83048 72.0911475,35.44656 72.8479164,35.44656 L76.2149756,35.44656 C76.9719837,35.44656 77.5861556,34.83048 77.5861556,34.07112 L77.5861556,3.07632 C77.5861556,2.31696 76.9719837,1.70232 76.2149756,1.70232"/>
    <path d="M10.4972671,7.353168 C11.8134181,6.537168 13.206849,6.140448 14.7593856,6.140448 C16.4205447,6.140448 17.9659036,6.694608 19.4842265,7.835088 L20.4955645,8.594448 C21.0219292,8.989728 21.758122,8.954688 22.242856,8.507088 L24.7725168,6.179808 C25.0715877,5.904528 25.2335645,5.509248 25.2156202,5.101968 C25.1964797,4.694688 24.9971789,4.316688 24.6729861,4.070448 L23.2168699,2.965008 C20.6398362,1.006368 17.7933995,0.0134880007 14.7593856,0.0134880007 C12.7517828,0.0134880007 10.8051905,0.434208001 8.9698525,1.263648 C7.1660964,2.079648 5.58508827,3.204528 4.27204762,4.603728 C2.96474913,5.992608 1.92087224,7.654608 1.16817073,9.541728 C0.411401858,11.436288 0.0261986063,13.961808 0.0261986063,17.046768 C0.0261986063,20.217648 0.388911731,22.602288 1.16673519,24.550368 C1.92087224,26.439168 2.96474913,28.100928 4.27061208,29.488368 C5.58508827,30.889008 7.1660964,32.012448 8.9698525,32.828448 C10.8051905,33.659328 12.7517828,34.080048 14.7593856,34.080048 C17.927144,34.080048 20.8240639,33.098448 23.3687979,31.163568 L24.573216,30.249168 C25.1739895,29.794128 25.2945749,28.937808 24.8454901,28.332048 L22.8393229,25.628928 C22.6206423,25.334448 22.2950139,25.139808 21.9320616,25.088928 C21.5736551,25.039008 21.2032857,25.133808 20.9104355,25.355328 L19.6849628,26.289168 C18.2171231,27.408768 16.6050116,27.953328 14.7593856,27.953328 C13.206849,27.953328 11.8119826,27.555648 10.4958316,26.739648 C9.14235656,25.900608 8.09991521,24.787728 7.30725784,23.335488 C6.55024971,21.953328 6.11599884,19.660368 6.11599884,17.046768 C6.11599884,14.316768 6.516036,12.201408 7.30725784,10.755888 C8.09991521,9.305088 9.14403136,8.191488 10.4972671,7.353168" transform="translate(91.157 1.528)"/>
    <path d="M20.728098 1.70232L1.38012822 1.70232C.623120093 1.70232.0103837398 2.31696.00894819977 3.07632L.0000957026713 34.07112C.0000957026713 34.43592.14436748 34.7856.401568409 35.0436.658769338 35.30184 1.00832334 35.44656 1.37127573 35.44656L4.7380957 35.44656C5.49510383 35.44656 6.10927573 34.83048 6.10927573 34.07112L6.10927573 20.59272 14.8507577 20.59272C15.6077659 20.59272 16.2219377 19.97664 16.2219377 19.21728L16.2219377 15.84C16.2219377 15.08064 15.6077659 14.466 14.8507577 14.466L6.10927573 14.466 6.10927573 7.82904 18.937501 7.82904 20.7534592 7.79472C21.4999401 7.77984 22.099278 7.16904 22.099278 6.41928L22.099278 3.07632C22.099278 2.31696 21.4851062 1.70232 20.728098 1.70232M49.806278 11.801688C49.806278 12.228408 49.7275626 13.060728 49.5593652 13.455288 49.3765731 13.883448 49.1282246 14.248248 48.7755603 14.603208 48.4781642 14.904648 48.023098 15.174648 47.4610841 15.384888 46.8095882 15.626568 46.0408564 15.750408 45.1783361 15.750408L39.7941038 15.750408 39.7941038 7.828968 45.1783361 7.828968C46.042292 7.828968 46.8081526 7.951368 47.4579738 8.194488 48.0336253 8.409288 48.4767287 8.671848 48.7772351 8.977848 49.1265498 9.330648 49.38399 9.704328 49.5624755 10.119048 49.7289981 10.506168 49.806278 11.378088 49.806278 11.801688M55.1852467 15.859368C55.67022 14.716008 55.9154581 13.051848 55.9154581 11.801688 55.9154581 10.550088 55.6687844 8.842008 55.1838111 7.702248 54.7079296 6.579048 54.0179134 5.554008 53.1300318 4.656888 52.2050655 3.723768 51.0228983 2.983848 49.6158297 2.457048 48.2759923 1.955928 46.7859017 1.702248 45.1871886 1.702248L34.9340829 1.702248C34.5548611 1.702248 34.1935835 1.858968 33.9347078 2.136408 33.6760713 2.413128 33.5420876 2.785368 33.5660132 3.164328L33.6669796 4.703688 33.6849238 34.072488C33.6863593 34.831128 34.2990957 35.446488 35.0561038 35.446488L38.4229238 35.446488C39.1799319 35.446488 39.7941038 34.830408 39.7941038 34.071048L39.7941038 21.877128 43.5303361 21.877128 49.453853 34.620888C49.6708588 35.122728 50.1646846 35.447928 50.710429 35.447928L54.5177206 35.447928C54.9816393 35.447928 55.4144546 35.212248 55.6671096 34.822248 55.9200039 34.432008 55.9587635 33.939768 55.7697508 33.514728L49.8048425 21.019368C51.1269749 20.503368 52.2407148 19.794648 53.1151979 18.914568 54.0076253 18.023928 54.703623 16.996008 55.1852467 15.859368M149.820092 1.70232L146.453032 1.70232C145.696263 1.70232 145.082092 2.31696 145.082092 3.07632L145.082092 15.67296 134.540921 15.67296 134.540921 3.07632C134.540921 2.31696 133.926749 1.70232 133.169741 1.70232L129.802921 1.70232C129.045913 1.70232 128.431741 2.31696 128.431741 3.07632L128.431741 34.07112C128.431741 34.83048 129.045913 35.44656 129.802921 35.44656L133.169741 35.44656C133.926749 35.44656 134.540921 34.83048 134.540921 34.07112L134.540921 21.79968 145.082092 21.79968 145.082092 34.07112C145.082092 34.83048 145.696263 35.44656 146.453032 35.44656L149.820092 35.44656C150.5771 35.44656 151.191272 34.83048 151.191272 34.07112L151.191272 3.07632C151.191272 2.31696 150.5771 1.70232 149.820092 1.70232M185.670815 1.70232L164.02957 1.70232C163.272561 1.70232 162.65839 2.31696 162.65839 3.07632L162.65839 6.41928C162.65839 7.1772 163.26969 7.79184 164.025024 7.79472L171.795602 7.82376 171.795602 34.07112C171.795602 34.83048 172.409774 35.44656 173.166782 35.44656L176.533602 35.44656C177.29061 35.44656 177.904782 34.83048 177.904782 34.07112L177.904782 7.82904 183.880218 7.82904 185.696176 7.79472C186.442657 7.77984 187.041995 7.16904 187.041995 6.41928L187.041995 3.07632C187.041995 2.31696 186.427823 1.70232 185.670815 1.70232M204.605038 1.70232L201.237979 1.70232C200.48121 1.70232 199.867038 2.31696 199.867038 3.07632L199.867038 34.07112C199.867038 34.83048 200.48121 35.44656 201.237979 35.44656L204.605038 35.44656C205.362046 35.44656 205.976218 34.83048 205.976218 34.07112L205.976218 3.07632C205.976218 2.31696 205.362046 1.70232 204.605038 1.70232"/>
  </g>
</svg>
