<svg xmlns="http://www.w3.org/2000/svg" width="286" height="56" viewBox="0 0 286 56">
  <defs>
    <linearGradient id="manomano-a" x1="17.264%" x2="72.488%" y1="78.472%" y2="30.4%">
      <stop offset=".044%" stop-color="#0397A7"/>
      <stop offset="99.71%" stop-color="#00ECCD"/>
    </linearGradient>
  </defs>
  <g fill="none" transform="translate(24 2)">
    <path fill="url(#manomano-a)" d="M53.3851,19.0366 L39.20064,1.7221 C38.168434,0.468911 36.57023,-0.12478 34.97189,0.106148 L12.72909,3.634838 C11.130852,3.898661 9.79897,4.95397 9.19972,6.470948 L1.14189,27.312948 C0.575841,28.82996 0.842214,30.511838 1.841117,31.765078 L16.025577,49.079578 C17.057783,50.332767 18.655987,50.926458 20.254327,50.69553 L42.497127,47.16684 C44.095365,46.903017 45.427247,45.847708 46.026497,44.33073 L54.084327,23.48873 C54.683662,21.971718 54.417289,20.28984 53.3851,19.0366 Z"/>
    <polygon fill="#FFF" points="33.675 15.326 28.688 24.25 23.766 13.679 17.62 15.293 10.024 35.051 16.795 35.051 21.388 23.394 25.879 34.491 29.349 34.491 36.021 22.603 36.021 37.816 42.33 35.676 42.33 16.874"/>
    <path fill="#113A85" d="M73.7817,7.44923 C75.49836,5.822755 77.57814,5.04203 80.087,5.04203 C82.59586,5.04203 84.70879,5.822738 86.3923,7.44923 C88.10896,9.043184 88.93431,11.0925 88.93431,13.59728 C88.93431,16.10206 88.075997,18.15141 86.3923,19.71286 C84.708603,21.27431 82.62884,22.05495 80.087,22.05495 C77.57814,22.05495 75.46521,21.274242 73.7817,19.71286 C72.098071,18.118906 71.27284,16.06959 71.27284,13.59728 C71.27284,11.0925 72.131153,9.04315 73.7817,7.44923 Z M80.11998,17.30566 C81.96873,17.30566 83.48717,15.841824 83.48717,13.59728 C83.48717,11.32013 82.001625,9.82379 80.11998,9.82379 C78.27123,9.82379 76.75279,11.352685 76.75279,13.59728 C76.75279,15.84179 78.238335,17.30566 80.11998,17.30566 Z M63.97695,5.0745 C67.77339,5.0745 69.42392,7.09138 69.42392,10.63707 L69.42392,21.66463 L63.28369,21.66463 L63.28369,11.90578 C63.28369,10.897357 62.920553,10.311826 62.128268,10.311826 C61.401994,10.311826 59.982528,10.572062 59.091218,11.190131 L59.091218,21.697151 L53.016948,21.697151 L53.016948,5.399931 L58.034838,5.399931 L58.364961,6.636052 C59.35533,5.985462 61.699171,5.139695 63.547921,5.074636 L63.977086,5.074636 L63.97695,5.0745 Z M24.13065,1.85402 L32.94498,3.382915 L32.94498,22.120315 L26.50759,24.267245 L26.50759,9.140985 L19.74006,21.111875 L16.2078,21.111875 L11.61916,9.954265 L6.96439,21.664885 L0.06477,21.664885 L7.78957,1.822485 L14.02891,0.163472 L19.0468,10.800542 L24.13065,1.854972 L24.13065,1.85402 Z M36.31217,5.88761 C40.73574,5.139423 50.77152,2.79735 50.8045,11.80803 L50.8045,21.69693 L46.14973,21.69693 L45.786593,20.916222 C45.786593,20.916222 44.168992,22.119822 40.669763,22.119822 C36.840343,22.119822 34.826523,19.517462 34.826523,17.012682 C34.826523,12.881512 38.490873,11.905542 42.650433,11.905542 L45.555563,11.905542 C45.555563,10.214008 44.53218,9.595922 42.353443,9.628392 C39.283243,9.628392 36.840343,10.31152 36.312153,10.474159 L36.312153,5.887559 L36.31217,5.88761 Z M45.58856,15.51641 L45.58856,15.3537625 L42.8485,15.321233 C40.70276,15.321233 39.67936,15.646528 39.67936,16.72001 C39.67936,17.793492 40.570687,18.216367 42.08928,18.216367 C44.36711,18.216367 45.58856,17.403121 45.58856,15.516427 L45.58856,15.51641 Z M163.50906,7.44906 C165.22572,5.822585 167.3055,5.04186 169.81436,5.04186 C172.32322,5.04186 174.43615,5.822568 176.11966,7.44906 C177.83632,9.043014 178.66167,11.09233 178.66167,13.59711 C178.66167,16.10189 177.803357,18.15124 176.11966,19.71269 C174.436031,21.274106 172.3562,22.05478 169.81436,22.05478 C167.3055,22.05478 165.19257,21.274072 163.50906,19.71269 C161.825431,18.118736 161.0002,16.06942 161.0002,13.59711 C161.0002,11.09233 161.825499,9.04298 163.50906,7.44906 Z M169.81436,17.30549 C171.66311,17.30549 173.18155,15.841654 173.18155,13.59711 C173.18155,11.31996 171.696005,9.82362 169.81436,9.82362 C167.96561,9.82362 166.44717,11.352515 166.44717,13.59711 C166.480182,15.84162 167.965729,17.30549 169.81436,17.30549 Z M153.70431,5.07433 C157.50075,5.07433 159.1183,7.09121 159.1183,10.6369 L159.1183,21.66446 L153.01105,21.66446 L153.01105,11.90561 C153.01105,10.897187 152.647913,10.311656 151.855628,10.311656 C151.129354,10.311656 149.709888,10.571892 148.818578,11.189961 L148.818578,21.696981 L142.744308,21.696981 L142.744308,5.399761 L147.762198,5.399761 L148.092321,6.635882 C149.08269,5.985292 151.426531,5.139525 153.275281,5.074466 L153.704446,5.074466 L153.70431,5.07433 Z M113.85801,1.85385 L122.67234,3.382745 L122.67234,22.120145 L116.23495,24.267075 L116.23495,9.140815 L109.43444,21.111705 L105.93516,21.111705 L101.34652,9.954095 L96.69175,21.664715 L89.79213,21.664715 L97.51693,1.822315 L103.75627,0.163302 L108.77416,10.800372 L113.85801,1.854802 L113.85801,1.85385 Z M126.00655,5.88744 C130.46327,5.139253 140.49888,2.79718 140.49888,11.80786 L140.49888,21.69676 L135.84411,21.69676 L135.480973,20.916052 C135.480973,20.916052 133.863372,22.119652 130.364143,22.119652 C126.534723,22.119652 124.520903,19.517292 124.520903,17.012512 C124.520903,12.881342 128.185253,11.905372 132.344813,11.905372 L135.249943,11.905372 C135.249943,10.213838 134.22656,9.595752 132.047823,9.628222 C128.977623,9.628222 126.534723,10.31135 126.006533,10.473989 L126.006533,5.887389 L126.00655,5.88744 Z M135.28294,15.51624 L135.28294,15.3535925 L132.54288,15.321063 C130.39714,15.321063 129.37374,15.646358 129.37374,16.71984 C129.37374,17.793322 130.265067,18.216197 131.78366,18.216197 C134.06149,18.216197 135.28294,17.402951 135.28294,15.516257 L135.28294,15.51624 Z" transform="translate(56.44 15.3)"/>
  </g>
</svg>
